# xmcd
#
# Track frame offsets:
# 150
# 20663
# 31382
# 43045
# 60950
# 78305
# 91604
# 103952
# 129792
# 140609
# 151289
# 154657
# 176388
# 189876
# 198455
# 217702
# 226985
# 229998
# 234888
# 236211
# 239594
# 247344
# 251903
# 253650
# 264501
# 270790
# 274237
# 284453
# 288938
# 295675
# 302150
# 323957
# 341989
# 358018
#
# Disc length: 4800 seconds
#
# Revision: 0
# Processed by: cddbd v1.5.1PL2 Copyright (c) Steve Scherf et al.
# Submitted via: Audion 3.0.2 (http://www.panic.com/audion/)
#
DISCID=ef12be22
DTITLE=direct - rejay
DYEAR=1900
DGENRE=
TTITLE0=y
TTITLE1=y
TTITLE2=y
TTITLE3=y
TTITLE4=y
TTITLE5=y
TTITLE6=y
TTITLE7=y
TTITLE8=y
TTITLE9=y
TTITLE10=y
TTITLE11=y
TTITLE12=y
TTITLE13=y
TTITLE14=y
TTITLE15=y
TTITLE16=y
TTITLE17=y
TTITLE18=y
TTITLE19=y
TTITLE20=y
TTITLE21=y
TTITLE22=y
TTITLE23=y
TTITLE24=y
TTITLE25=y
TTITLE26=y
TTITLE27=a
TTITLE28=y
TTITLE29=y
TTITLE30=y
TTITLE31=y
TTITLE32=y
TTITLE33=y
EXTD=
EXTT0=
EXTT1=
EXTT2=
EXTT3=
EXTT4=
EXTT5=
EXTT6=
EXTT7=
EXTT8=
EXTT9=
EXTT10=
EXTT11=
EXTT12=
EXTT13=
EXTT14=
EXTT15=
EXTT16=
EXTT17=
EXTT18=
EXTT19=
EXTT20=
EXTT21=
EXTT22=
EXTT23=
EXTT24=
EXTT25=
EXTT26=
EXTT27=
EXTT28=
EXTT29=
EXTT30=
EXTT31=
EXTT32=
EXTT33=
PLAYORDER=
